{
 "cells": [
  {
   "cell_type": "code",
   "execution_count": 10,
   "id": "0e7f014f",
   "metadata": {},
   "outputs": [
    {
     "name": "stdout",
     "output_type": "stream",
     "text": [
      "ffmpeg version 2026-01-26-git-fe0813d6e2-essentials_build-www.gyan.dev Copyright (c) 2000-2026 the FFmpeg developers\n",
      "  built with gcc 15.2.0 (Rev8, Built by MSYS2 project)\n",
      "  configuration: --enable-gpl --enable-version3 --enable-static --disable-w32threads --disable-autodetect --enable-cairo --enable-fontconfig --enable-iconv --enable-gnutls --enable-libxml2 --enable-gmp --enable-bzlib --enable-lzma --enable-zlib --enable-libsrt --enable-libssh --enable-libzmq --enable-avisynth --enable-sdl2 --enable-libwebp --enable-libx264 --enable-libx265 --enable-libxvid --enable-libaom --enable-libopenjpeg --enable-libvpx --enable-mediafoundation --enable-libass --enable-libfreetype --enable-libfribidi --enable-libharfbuzz --enable-libvidstab --enable-libvmaf --enable-libzimg --enable-amf --enable-cuda-llvm --enable-cuvid --enable-dxva2 --enable-d3d11va --enable-d3d12va --enable-ffnvcodec --enable-libvpl --enable-nvdec --enable-nvenc --enable-vaapi --enable-openal --enable-libgme --enable-libopenmpt --enable-libopencore-amrwb --enable-libmp3lame --enable-libtheora --enable-libvo-amrwbenc --enable-libgsm --enable-libopencore-amrnb --enable-libopus --enable-libspeex --enable-libvorbis --enable-librubberband\n",
      "  libavutil      60. 23.100 / 60. 23.100\n",
      "  libavcodec     62. 23.102 / 62. 23.102\n",
      "  libavformat    62.  8.102 / 62.  8.102\n",
      "  libavdevice    62.  2.100 / 62.  2.100\n",
      "  libavfilter    11. 11.101 / 11. 11.101\n",
      "  libswscale      9.  3.100 /  9.  3.100\n",
      "  libswresample   6.  2.100 /  6.  2.100\n",
      "Input #0, mov,mp4,m4a,3gp,3g2,mj2, from 'leo_trialer.mp4':\n",
      "  Metadata:\n",
      "    major_brand     : mp42\n",
      "    minor_version   : 0\n",
      "    compatible_brands: mp42isom\n",
      "  Duration: 00:00:22.98, start: 0.000000, bitrate: 2587 kb/s\n",
      "  Stream #0:0[0x1](und): Video: h264 (Baseline) (avc1 / 0x31637661), yuv420p(tv, smpte170m/bt470bg/smpte170m, progressive), 1280x720, 2489 kb/s, 30.01 fps, 30 tbr, 90k tbn (default)\n",
      "  Stream #0:1[0x2](und): Audio: aac (LC) (mp4a / 0x6134706D), 48000 Hz, stereo, fltp, 96 kb/s (default)\n",
      "Stream mapping:\n",
      "  Stream #0:0 -> #0:0 (h264 (native) -> webp (libwebp))\n",
      "Press [q] to stop, [?] for help\n",
      "Output #0, webp, to 'sticker_leo.webp':\n",
      "  Metadata:\n",
      "    major_brand     : mp42\n",
      "    minor_version   : 0\n",
      "    compatible_brands: mp42isom\n",
      "    encoder         : Lavf62.8.102\n",
      "  Stream #0:0(und): Video: webp, yuv420p(tv, smpte170m/bt470bg/smpte170m, progressive), 512x512, q=2-31, 200 kb/s, 10 fps, 1k tbn (default)\n",
      "    Metadata:\n",
      "      encoder         : Lavc62.23.102 libwebp\n",
      "frame=   20 fps=0.0 q=-0.0 size=      69KiB time=00:00:02.00 bitrate= 283.3kbits/s speed= 3.9x elapsed=0:00:00.51    \n",
      "frame=   34 fps= 33 q=-0.0 size=     135KiB time=00:00:03.40 bitrate= 325.0kbits/s speed=3.27x elapsed=0:00:01.04    \n",
      "frame=   53 fps= 34 q=-0.0 size=     213KiB time=00:00:05.30 bitrate= 329.8kbits/s speed=3.43x elapsed=0:00:01.54    \n",
      "frame=   76 fps= 37 q=-0.0 size=     256KiB time=00:00:07.60 bitrate= 275.9kbits/s speed=3.69x elapsed=0:00:02.05    \n",
      "frame=   98 fps= 38 q=-0.0 size=     256KiB time=00:00:09.80 bitrate= 214.0kbits/s speed= 3.8x elapsed=0:00:02.57    \n",
      "frame=  117 fps= 38 q=-0.0 size=     256KiB time=00:00:11.70 bitrate= 179.2kbits/s speed=3.79x elapsed=0:00:03.09    \n",
      "frame=  137 fps= 38 q=-0.0 size=     512KiB time=00:00:13.70 bitrate= 306.2kbits/s speed= 3.8x elapsed=0:00:03.60    \n",
      "frame=  156 fps= 38 q=-0.0 size=     512KiB time=00:00:15.60 bitrate= 268.9kbits/s speed=3.79x elapsed=0:00:04.12    \n",
      "frame=  178 fps= 38 q=-0.0 size=     768KiB time=00:00:17.80 bitrate= 353.5kbits/s speed=3.84x elapsed=0:00:04.63    \n",
      "frame=  199 fps= 39 q=-0.0 size=     768KiB time=00:00:19.90 bitrate= 316.2kbits/s speed=3.86x elapsed=0:00:05.15    \n",
      "[out#0/webp @ 0000027433963e40] video:994KiB audio:0KiB subtitle:0KiB other streams:0KiB global headers:0KiB muxing overhead: 0.263824%\n",
      "frame=  220 fps= 39 q=-0.0 Lsize=     996KiB time=00:00:22.00 bitrate= 370.9kbits/s speed=3.91x elapsed=0:00:05.62    \n",
      "\n",
      "✅ Sticker created: sticker_leo.webp\n",
      "📦 Size: 996.12 KB\n"
     ]
    }
   ],
   "source": [
    "import subprocess\n",
    "import os\n",
    "\n",
    "INPUT_VIDEO = r\"leo_trialer.mp4\"\n",
    "OUTPUT_STICKER = \"sticker_leo.webp\"\n",
    "\n",
    "MAX_DURATION = 22\n",
    "\n",
    "def video_to_whatsapp_sticker(input_video, output_webp):\n",
    "\n",
    "    command = [\n",
    "        \"ffmpeg\",\n",
    "        \"-y\",\n",
    "        \"-i\", input_video,\n",
    "        \"-t\", str(MAX_DURATION),\n",
    "\n",
    "        \"-vf\",\n",
    "        \"scale=512:512:force_original_aspect_ratio=decrease,\"\n",
    "        \"pad=512:512:(ow-iw)/2:(oh-ih)/2:color=0x00000000,\"\n",
    "        \"fps=10\",\n",
    "\n",
    "        \"-loop\", \"0\",\n",
    "        \"-an\",\n",
    "\n",
    "        \"-c:v\", \"libwebp\",\n",
    "        \"-q:v\", \"60\",\n",
    "        \"-compression_level\", \"6\",\n",
    "\n",
    "        output_webp\n",
    "    ]\n",
    "\n",
    "    result = subprocess.run(command, capture_output=True, text=True)\n",
    "\n",
    "    print(result.stderr)\n",
    "\n",
    "    if os.path.exists(output_webp):\n",
    "        size_kb = os.path.getsize(output_webp) / 1024\n",
    "        print(f\"✅ Sticker created: {output_webp}\")\n",
    "        print(f\"📦 Size: {size_kb:.2f} KB\")\n",
    "    else:\n",
    "        print(\"❌ Sticker creation failed\")\n",
    "\n",
    "if __name__ == \"__main__\":\n",
    "    video_to_whatsapp_sticker(INPUT_VIDEO, OUTPUT_STICKER)"
   ]
  }
 ],
 "metadata": {
  "kernelspec": {
   "display_name": "Python 3",
   "language": "python",
   "name": "python3"
  },
  "language_info": {
   "codemirror_mode": {
    "name": "ipython",
    "version": 3
   },
   "file_extension": ".py",
   "mimetype": "text/x-python",
   "name": "python",
   "nbconvert_exporter": "python",
   "pygments_lexer": "ipython3",
   "version": "3.10.0"
  }
 },
 "nbformat": 4,
 "nbformat_minor": 5
}
